#Comment line ignore any data following # character 
#Hierarchical Translation and Rotation (.htr) file 
[Header]	
#Header keywords are followed by a single value 
FileType HTR		#Single word string
DataType HTRS		#Translation followed by rotation and scale data
FileVersion 1		#integer
NumSegments 84		#integer
NumFrames 2		#integer
DataFrameRate 30		#integer, data frame rate in this file
EulerRotationOrder ZYX
CalibrationUnits mm
RotationUnits Degrees
GlobalAxisofGravity Y
BoneLengthAxis Y
ScaleFactor 1.00
[SegmentNames&Hierarchy]
#CHILD	PARENT
MASTER GLOBAL
root MASTER
chest root
L_mid_tent01 root
R_mid_tent01 root
spine01 root
Bip01_Neck chest
L_humerus chest
R_humerus chest
weapon_bone chest
Bip01_Head Bip01_Neck
eye_left_bone Bip01_Head
eye_right_bone Bip01_Head
L_forearm L_humerus
L_front_hand L_forearm
L_weapon_bone L_forearm
L_front_hand01_01 L_front_hand
L_front_hand02_01 L_front_hand
L_front_hand03_01 L_front_hand
L_front_hand01_02 L_front_hand01_01
L_front_hand02_02 L_front_hand02_01
L_front_hand03_02 L_front_hand03_01
R_forearm R_humerus
R_front_hand R_forearm
R_weapon_bone R_forearm
R_front_hand01_01 R_front_hand
R_front_hand02_01 R_front_hand
R_front_hand03_01 R_front_hand
R_front_hand01_02 R_front_hand01_01
R_front_hand02_02 R_front_hand02_01
R_front_hand03_02 R_front_hand03_01
null_rope01_connect L_mid_tent01
Rope1_Seg01 null_rope01_connect
Rope1_Seg02 Rope1_Seg01
Rope1_Seg03 Rope1_Seg02
Rope1_Seg04 Rope1_Seg03
Rope1_Seg05 Rope1_Seg04
Rope1_Seg06 Rope1_Seg05
Rope1_Seg07 Rope1_Seg06
Rope1_Seg09 Rope1_Seg07
L_mid_hand01 Rope1_Seg09
L_mid_hand02 Rope1_Seg09
L_mid_hand03 Rope1_Seg09
null_rope02_connect R_mid_tent01
Rope2_Seg01 null_rope02_connect
Rope2_Seg02 Rope2_Seg01
Rope2_Seg03 Rope2_Seg02
Rope2_Seg04 Rope2_Seg03
Rope2_Seg05 Rope2_Seg04
Rope2_Seg06 Rope2_Seg05
Rope2_Seg07 Rope2_Seg06
Rope2_Seg09 Rope2_Seg07
R_mid_hand01 Rope2_Seg09
R_mid_hand02 Rope2_Seg09
R_mid_hand03 Rope2_Seg09
spine02 spine01
spine03 spine02
pelvis spine03
null_rope03_connect pelvis
null_rope04_connect pelvis
Rope3_Seg01 null_rope03_connect
Rope3_Seg02 Rope3_Seg01
Rope3_Seg03 Rope3_Seg02
Rope3_Seg04 Rope3_Seg03
Rope3_Seg05 Rope3_Seg04
Rope3_Seg06 Rope3_Seg05
Rope3_Seg07 Rope3_Seg06
Rope3_Seg08 Rope3_Seg07
Rope3_Seg09 Rope3_Seg08
R_rear_hand01 Rope3_Seg09
R_rear_hand02 Rope3_Seg09
R_rear_hand03 Rope3_Seg09
Rope4_Seg01 null_rope04_connect
Rope4_Seg02 Rope4_Seg01
Rope4_Seg03 Rope4_Seg02
Rope4_Seg04 Rope4_Seg03
Rope4_Seg05 Rope4_Seg04
Rope4_Seg06 Rope4_Seg05
Rope4_Seg07 Rope4_Seg06
Rope4_Seg08 Rope4_Seg07
Rope4_Seg09 Rope4_Seg08
L_rear_hand01 Rope4_Seg09
L_rear_hand02 Rope4_Seg09
L_rear_hand03 Rope4_Seg09
[BasePosition]
#SegmentName Tx, Ty, Tz, Rx, Ry, Rz, BoneLength
MASTER 0.000000 0.000000 0.000000 -90.000000 0.000000 0.000000 10.000000 
root 0.000000 0.000000 0.000000 0.000000 0.000000 0.000000 10.000000 
chest 0.000000 0.000000 0.000000 0.000000 0.000000 0.000000 10.000000 
L_mid_tent01 0.000000 0.000000 0.000000 0.000000 0.000000 0.000000 10.000000 
R_mid_tent01 0.000000 0.000000 0.000000 0.000000 0.000000 0.000000 10.000000 
spine01 0.000000 0.000000 0.000000 0.000000 0.000000 0.000000 10.000000 
Bip01_Neck 0.000000 0.000000 0.000000 0.000000 0.000000 0.000000 10.000000 
L_humerus 0.000000 0.000000 0.000000 0.000000 0.000000 0.000000 10.000000 
R_humerus 0.000000 0.000000 0.000000 0.000000 0.000000 0.000000 10.000000 
weapon_bone 0.000000 0.000000 0.000000 0.000000 0.000000 0.000000 10.000000 
Bip01_Head 0.000000 0.000000 0.000000 0.000000 0.000000 0.000000 10.000000 
eye_left_bone 0.000000 0.000000 0.000000 0.000000 0.000000 0.000000 10.000000 
eye_right_bone 0.000000 0.000000 0.000000 0.000000 0.000000 0.000000 10.000000 
L_forearm 0.000000 0.000000 0.000000 0.000000 0.000000 0.000000 10.000000 
L_front_hand 0.000000 0.000000 0.000000 0.000000 0.000000 0.000000 10.000000 
L_weapon_bone 0.000000 0.000000 0.000000 0.000000 0.000000 0.000000 10.000000 
L_front_hand01_01 0.000000 0.000000 0.000000 0.000000 0.000000 0.000000 10.000000 
L_front_hand02_01 0.000000 0.000000 0.000000 0.000000 0.000000 0.000000 10.000000 
L_front_hand03_01 0.000000 0.000000 0.000000 0.000000 0.000000 0.000000 10.000000 
L_front_hand01_02 0.000000 0.000000 0.000000 0.000000 0.000000 0.000000 10.000000 
L_front_hand02_02 0.000000 0.000000 0.000000 0.000000 0.000000 0.000000 10.000000 
L_front_hand03_02 0.000000 0.000000 0.000000 0.000000 0.000000 0.000000 10.000000 
R_forearm 0.000000 0.000000 0.000000 0.000000 0.000000 0.000000 10.000000 
R_front_hand 0.000000 0.000000 0.000000 0.000000 0.000000 0.000000 10.000000 
R_weapon_bone 0.000000 0.000000 0.000000 0.000000 0.000000 0.000000 10.000000 
R_front_hand01_01 0.000000 0.000000 0.000000 0.000000 0.000000 0.000000 10.000000 
R_front_hand02_01 0.000000 0.000000 0.000000 0.000000 0.000000 0.000000 10.000000 
R_front_hand03_01 0.000000 0.000000 0.000000 0.000000 0.000000 0.000000 10.000000 
R_front_hand01_02 0.000000 0.000000 0.000000 0.000000 0.000000 0.000000 10.000000 
R_front_hand02_02 0.000000 0.000000 0.000000 0.000000 0.000000 0.000000 10.000000 
R_front_hand03_02 0.000000 0.000000 0.000000 0.000000 0.000000 0.000000 10.000000 
null_rope01_connect 0.000000 0.000000 0.000000 0.000000 0.000000 0.000000 10.000000 
Rope1_Seg01 0.000000 0.000000 0.000000 0.000000 0.000000 0.000000 10.000000 
Rope1_Seg02 0.000000 0.000000 0.000000 0.000000 0.000000 0.000000 10.000000 
Rope1_Seg03 0.000000 0.000000 0.000000 0.000000 0.000000 0.000000 10.000000 
Rope1_Seg04 0.000000 0.000000 0.000000 0.000000 0.000000 0.000000 10.000000 
Rope1_Seg05 0.000000 0.000000 0.000000 0.000000 0.000000 0.000000 10.000000 
Rope1_Seg06 0.000000 0.000000 0.000000 0.000000 0.000000 0.000000 10.000000 
Rope1_Seg07 0.000000 0.000000 0.000000 0.000000 0.000000 0.000000 10.000000 
Rope1_Seg09 0.000000 0.000000 0.000000 0.000000 0.000000 0.000000 10.000000 
L_mid_hand01 0.000000 0.000000 0.000000 0.000000 0.000000 0.000000 10.000000 
L_mid_hand02 0.000000 0.000000 0.000000 0.000000 0.000000 0.000000 10.000000 
L_mid_hand03 0.000000 0.000000 0.000000 0.000000 0.000000 0.000000 10.000000 
null_rope02_connect 0.000000 0.000000 0.000000 0.000000 0.000000 0.000000 10.000000 
Rope2_Seg01 0.000000 0.000000 0.000000 0.000000 0.000000 0.000000 10.000000 
Rope2_Seg02 0.000000 0.000000 0.000000 0.000000 0.000000 0.000000 10.000000 
Rope2_Seg03 0.000000 0.000000 0.000000 0.000000 0.000000 0.000000 10.000000 
Rope2_Seg04 0.000000 0.000000 0.000000 0.000000 0.000000 0.000000 10.000000 
Rope2_Seg05 0.000000 0.000000 0.000000 0.000000 0.000000 0.000000 10.000000 
Rope2_Seg06 0.000000 0.000000 0.000000 0.000000 0.000000 0.000000 10.000000 
Rope2_Seg07 0.000000 0.000000 0.000000 0.000000 0.000000 0.000000 10.000000 
Rope2_Seg09 0.000000 0.000000 0.000000 0.000000 0.000000 0.000000 10.000000 
R_mid_hand01 0.000000 0.000000 0.000000 0.000000 0.000000 0.000000 10.000000 
R_mid_hand02 0.000000 0.000000 0.000000 0.000000 0.000000 0.000000 10.000000 
R_mid_hand03 0.000000 0.000000 0.000000 0.000000 0.000000 0.000000 10.000000 
spine02 0.000000 0.000000 0.000000 0.000000 0.000000 0.000000 10.000000 
spine03 0.000000 0.000000 0.000000 0.000000 0.000000 0.000000 10.000000 
pelvis 0.000000 0.000000 0.000000 0.000000 0.000000 0.000000 10.000000 
null_rope03_connect 0.000000 0.000000 0.000000 0.000000 0.000000 0.000000 10.000000 
null_rope04_connect 0.000000 0.000000 0.000000 0.000000 0.000000 0.000000 10.000000 
Rope3_Seg01 0.000000 0.000000 0.000000 0.000000 0.000000 0.000000 10.000000 
Rope3_Seg02 0.000000 0.000000 0.000000 0.000000 0.000000 0.000000 10.000000 
Rope3_Seg03 0.000000 0.000000 0.000000 0.000000 0.000000 0.000000 10.000000 
Rope3_Seg04 0.000000 0.000000 0.000000 0.000000 0.000000 0.000000 10.000000 
Rope3_Seg05 0.000000 0.000000 0.000000 0.000000 0.000000 0.000000 10.000000 
Rope3_Seg06 0.000000 0.000000 0.000000 0.000000 0.000000 0.000000 10.000000 
Rope3_Seg07 0.000000 0.000000 0.000000 0.000000 0.000000 0.000000 10.000000 
Rope3_Seg08 0.000000 0.000000 0.000000 0.000000 0.000000 0.000000 10.000000 
Rope3_Seg09 0.000000 0.000000 0.000000 0.000000 0.000000 0.000000 10.000000 
R_rear_hand01 0.000000 0.000000 0.000000 0.000000 0.000000 0.000000 10.000000 
R_rear_hand02 0.000000 0.000000 0.000000 0.000000 0.000000 0.000000 10.000000 
R_rear_hand03 0.000000 0.000000 0.000000 0.000000 0.000000 0.000000 10.000000 
Rope4_Seg01 0.000000 0.000000 0.000000 0.000000 0.000000 0.000000 10.000000 
Rope4_Seg02 0.000000 0.000000 0.000000 0.000000 0.000000 0.000000 10.000000 
Rope4_Seg03 0.000000 0.000000 0.000000 0.000000 0.000000 0.000000 10.000000 
Rope4_Seg04 0.000000 0.000000 0.000000 0.000000 0.000000 0.000000 10.000000 
Rope4_Seg05 0.000000 0.000000 0.000000 0.000000 0.000000 0.000000 10.000000 
Rope4_Seg06 0.000000 0.000000 0.000000 0.000000 0.000000 0.000000 10.000000 
Rope4_Seg07 0.000000 0.000000 0.000000 0.000000 0.000000 0.000000 10.000000 
Rope4_Seg08 0.000000 0.000000 0.000000 0.000000 0.000000 0.000000 10.000000 
Rope4_Seg09 0.000000 0.000000 0.000000 0.000000 0.000000 0.000000 10.000000 
L_rear_hand01 0.000000 0.000000 0.000000 0.000000 0.000000 0.000000 10.000000 
L_rear_hand02 0.000000 0.000000 0.000000 0.000000 0.000000 0.000000 10.000000 
L_rear_hand03 0.000000 0.000000 0.000000 0.000000 0.000000 0.000000 10.000000 
#Beginning of Data. Separated by tabs
#Fr	Tx	Ty	Tz	Rx	Ry	Rz	SF
[MASTER]
15 -2406.134277 2424.673096 2303.215820 0.001660 0.001660 0.001660 4119.869629
16 -1990.829468 2595.486328 2190.659912 0.001660 0.001660 0.001660 3936.869629
[root]
15 20.013161 -118.897346 462.015167 -169.553238 -7.981701 -89.639587 477.488373
16 -46.025845 -123.762817 525.626648 -169.654633 -6.953710 -91.649353 541.958496
[chest]
15 -84.512650 -34.090519 0.000000 -53.949402 -20.863174 -150.776505 91.129311
16 -84.512650 -34.090519 0.000000 -55.777550 -21.745525 -151.152451 91.129311
[L_mid_tent01]
15 27.298929 22.179258 -249.918686 -1.750460 23.716267 67.391731 252.381668
16 27.298918 22.179258 -249.918686 -1.714017 24.055759 67.405937 252.381668
[R_mid_tent01]
15 23.228794 24.509907 226.238495 168.924835 -6.327341 59.724274 228.744751
16 23.228794 24.509907 226.238495 167.843872 -1.257192 60.220882 228.744751
[spine01]
15 -0.361383 -0.195265 0.000000 0.001956 0.001297 22.906536 0.410763
16 -0.361383 -0.195265 0.000000 0.001956 0.001297 22.909056 0.410763
[Bip01_Neck]
15 165.484543 71.581718 0.000119 176.643677 -1.657967 43.431911 180.302734
16 165.484543 71.581718 0.000119 176.643677 -1.657967 43.431915 180.302734
[L_humerus]
15 -13.983130 -135.272980 -120.471481 164.416687 58.729538 -102.947083 181.680161
16 -13.983130 -135.272980 -120.471481 171.322372 24.792830 -93.028343 181.680161
[R_humerus]
15 -13.983309 -135.273102 125.287651 -176.572144 -17.874014 -86.864311 184.909012
16 -13.983309 -135.273102 125.287651 -176.921463 -5.896601 -85.951195 184.909012
[weapon_bone]
15 235.964890 -300.705902 0.000000 0.000000 -89.951546 -128.212341 382.234833
16 235.964890 -300.705902 0.000000 0.000000 -89.951546 -128.212341 382.234833
[Bip01_Head]
15 213.342056 186.000748 8.095098 18.216763 5.729978 -43.838360 283.154785
16 213.327332 186.042404 7.559204 18.223381 6.152122 -43.833611 283.156250
[eye_left_bone]
15 -24.626970 125.451866 -64.772606 0.000000 -90.000000 -99.840431 143.318359
16 -24.626970 125.451866 -64.772606 0.000000 -90.000000 -99.840431 143.318359
[eye_right_bone]
15 -24.626970 125.451866 64.327362 0.000000 -89.965736 80.156380 143.117676
16 -24.626970 125.451866 64.327362 0.000000 -89.965736 80.156380 143.117676
[L_forearm]
15 322.776093 0.000000 -0.000119 0.000432 -0.002307 -111.221695 322.776093
16 322.776093 0.000000 -0.000119 0.000433 -0.002307 -111.239677 322.776093
[L_front_hand]
15 241.149185 -0.042021 -3.300071 -178.667953 -1.835447 -27.422350 241.171753
16 241.149185 -0.042021 -3.300071 -178.667953 -1.835447 -27.422350 241.171753
[L_weapon_bone]
15 156.183838 0.000000 0.000000 0.000014 0.000007 0.000001 156.183838
16 156.183838 0.000000 0.000000 0.000014 0.000007 0.000001 156.183838
[L_front_hand01_01]
15 86.095154 20.947098 -0.655860 -0.298084 -0.518635 67.679565 88.609184
16 86.095154 20.947098 -0.655860 -0.307662 -0.512638 68.898666 88.609184
[L_front_hand02_01]
15 86.935165 -11.437475 24.513514 143.833725 -55.908611 -48.913986 91.046425
16 86.935165 -11.437475 24.513514 145.311646 -56.611832 -50.692287 91.046425
[L_front_hand03_01]
15 86.637497 -14.123976 -20.424902 -144.057907 54.129471 -50.849678 90.126129
16 86.637497 -14.123976 -20.424902 -145.445206 54.832184 -52.559963 90.126129
[L_front_hand01_02]
15 71.020905 -0.000179 0.000030 0.000317 -0.002326 -105.506187 71.020905
16 71.020905 -0.000179 0.000030 0.000318 -0.002326 -105.568306 71.020905
[L_front_hand02_02]
15 71.020927 -0.000119 0.000060 0.000317 -0.002326 -105.506187 71.020927
16 71.020927 -0.000119 0.000060 0.000318 -0.002326 -105.568306 71.020927
[L_front_hand03_02]
15 71.020905 -0.000060 0.000060 0.000317 -0.002326 -105.506187 71.020905
16 71.020905 -0.000060 0.000060 0.000318 -0.002326 -105.568306 71.020905
[R_forearm]
15 322.776428 -0.000060 0.000030 0.201041 0.068364 -109.885597 322.776428
16 322.776428 -0.000060 0.000030 0.201037 0.068375 -109.891632 322.776428
[R_front_hand]
15 238.847015 -0.006795 2.210259 -2.635298 -10.645461 -26.312506 238.857239
16 238.847015 -0.006795 2.210259 -2.635298 -10.645461 -26.312504 238.857239
[R_weapon_bone]
15 155.664093 0.002503 -0.000030 0.003487 0.001180 -90.988930 155.664078
16 155.664093 0.002503 -0.000030 0.003487 0.001180 -90.988930 155.664078
[R_front_hand01_01]
15 87.624611 14.231146 22.918642 -143.936401 -55.959164 49.146469 91.683487
16 87.624611 14.231146 22.918642 -147.366211 -57.494862 53.245693 91.683487
[R_front_hand02_01]
15 89.356956 14.367283 -19.491137 144.531723 54.354237 51.666645 92.579636
16 89.356956 14.367283 -19.491137 147.772614 55.873154 55.617844 92.579636
[R_front_hand03_01]
15 87.286232 -22.307278 -0.143439 0.103015 -0.441569 -68.007927 90.091743
16 87.286232 -22.307278 -0.143439 0.124412 -0.437303 -70.732674 90.091743
[R_front_hand01_02]
15 71.020905 0.000060 0.000119 0.002323 -0.000334 106.381714 71.020905
16 71.020905 0.000060 0.000119 0.002323 -0.000334 106.381714 71.020905
[R_front_hand02_02]
15 71.020844 -0.000030 -0.000119 0.002323 -0.000334 106.381714 71.020836
16 71.020844 -0.000030 -0.000119 0.002323 -0.000334 106.381714 71.020836
[R_front_hand03_02]
15 71.020905 0.000000 0.000030 0.002323 -0.000334 106.381714 71.020905
16 71.020905 0.000000 0.000030 0.002323 -0.000334 106.381714 71.020905
[null_rope01_connect]
15 328.732483 0.000000 -0.000238 -164.515274 12.057906 -157.290985 328.732483
16 328.732483 0.000000 -0.000238 -165.815674 12.966075 -159.259644 328.732483
[Rope1_Seg01]
15 0.000000 0.000000 0.000000 112.802109 -62.757336 -13.825166 0.000000
16 0.000000 0.000000 0.000000 117.708534 -71.790466 -16.538906 0.000000
[Rope1_Seg02]
15 139.999863 -0.000179 0.000000 1.249014 8.678544 -0.295413 139.999863
16 139.999863 -0.000179 0.000000 3.088388 8.952454 3.603661 139.999863
[Rope1_Seg03]
15 139.999924 0.000060 -0.000060 0.441837 15.667996 -0.901065 139.999924
16 139.999924 0.000060 -0.000060 3.893131 16.509760 4.958036 139.999924
[Rope1_Seg04]
15 139.999924 -0.000060 -0.000119 -6.121424 25.561003 -11.323344 139.999924
16 139.999924 -0.000060 -0.000119 -1.605958 24.732868 -4.533919 139.999924
[Rope1_Seg05]
15 139.999832 0.000119 -0.000060 -12.066760 21.816544 0.904034 139.999832
16 139.999832 0.000119 -0.000060 0.269315 24.868444 29.379232 139.999832
[Rope1_Seg06]
15 139.999954 0.000119 -0.000060 -10.506347 29.806303 57.206707 139.999954
16 139.999954 0.000119 -0.000060 11.453148 16.597536 48.466438 139.999954
[Rope1_Seg07]
15 139.999985 0.000060 0.000000 2.273315 3.717196 31.751747 139.999985
16 139.999985 0.000060 0.000000 3.974246 6.203416 9.708620 139.999985
[Rope1_Seg09]
15 121.602913 0.000119 -0.000089 -89.793175 -1.359789 0.847147 121.602913
16 121.602913 0.000119 -0.000089 -89.793175 -1.359789 0.847147 121.602913
[L_mid_hand01]
15 103.859421 1.038730 8.195221 111.331619 -47.044132 -16.484411 104.187431
16 103.859421 1.038730 8.195221 112.678772 -49.980732 -18.276018 104.187431
[L_mid_hand02]
15 105.572853 -4.139662 -10.864139 -150.562546 35.052635 -44.910442 106.211075
16 105.572853 -4.139662 -10.864139 -152.571289 36.560631 -48.342625 106.211075
[L_mid_hand03]
15 104.641464 17.579376 -3.913581 -12.713118 13.922000 50.749573 106.179977
16 104.641464 17.579376 -3.913581 -11.926217 14.597142 53.941059 106.179977
[null_rope02_connect]
15 328.732849 0.000179 -0.000119 -5.013534 9.956626 146.439865 328.732849
16 328.732849 0.000179 -0.000119 -4.093646 5.338825 150.209869 328.732849
[Rope2_Seg01]
15 0.000050 0.000106 0.000000 70.361671 30.803423 1.077253 0.000117
16 0.000051 0.000103 0.000000 86.807976 35.707355 26.562368 0.000115
[Rope2_Seg02]
15 139.999741 -0.000060 -0.000119 1.961339 17.617317 -0.370099 139.999756
16 139.999741 -0.000060 -0.000119 0.033966 6.063219 -0.605711 139.999756
[Rope2_Seg03]
15 140.000107 0.000030 0.000000 -0.705564 23.203918 -1.895225 140.000107
16 140.000107 0.000030 0.000000 -0.359891 9.411366 -0.955943 140.000107
[Rope2_Seg04]
15 139.999802 0.000000 -0.000060 -2.741231 19.817467 -4.510736 139.999802
16 139.999802 0.000000 -0.000060 -1.746704 15.952283 -2.815498 139.999802
[Rope2_Seg05]
15 139.999985 -0.000060 0.000119 -5.075625 11.306235 1.852122 139.999985
16 139.999985 -0.000060 0.000119 -5.279225 20.624897 -3.229158 139.999985
[Rope2_Seg06]
15 139.999893 -0.000030 -0.000119 -14.603839 12.340990 10.925770 139.999893
16 139.999893 -0.000030 -0.000119 -32.673901 27.407658 10.780224 139.999893
[Rope2_Seg07]
15 139.999893 0.000060 -0.000060 -20.492523 10.902624 17.431141 139.999893
16 139.999893 0.000060 -0.000060 -45.198704 17.868795 32.129452 139.999893
[Rope2_Seg09]
15 121.338966 0.000089 -0.000060 33.793236 -1.359788 -0.847141 121.338966
16 121.338966 0.000089 -0.000060 33.793236 -1.359788 -0.847141 121.338966
[R_mid_hand01]
15 104.680779 11.144459 -10.335981 -37.023235 32.123150 37.917076 105.778534
16 104.680779 11.144459 -10.335981 -37.204079 31.906813 37.576260 105.778534
[R_mid_hand02]
15 104.070427 2.443552 8.231699 70.253288 -42.771339 14.235766 104.424065
16 104.070427 2.443552 8.231699 70.367462 -42.427391 14.067809 104.424065
[R_mid_hand03]
15 106.028137 -11.221827 -5.996406 -169.973053 12.289117 -47.575344 106.788818
16 106.028137 -11.221827 -5.996406 -169.893616 12.226661 -47.211018 106.788818
[spine02]
15 129.756927 0.001550 0.000119 0.540546 -4.023519 -15.529612 129.756927
16 129.756927 0.001550 0.000119 0.540722 -4.023496 -15.534616 129.756927
[spine03]
15 78.614052 0.081741 -4.899002 2.006305 3.775095 18.102551 78.766586
16 78.614044 0.081741 -4.899001 2.004620 3.775384 18.100828 78.766579
[pelvis]
15 169.435242 0.051022 0.000000 6.424573 -0.712029 -1.494680 169.435257
16 169.435242 0.051022 0.000000 6.324328 -0.612197 -3.058974 169.435257
[null_rope03_connect]
15 -1.257226 -2.466202 137.391083 -169.705246 -17.894257 -114.253532 137.418976
16 -1.257226 -2.466202 137.391083 -170.230453 -17.381462 -114.725784 137.418976
[null_rope04_connect]
15 -1.259640 -2.480268 -137.844437 -169.705246 -17.894257 -114.253532 137.872513
16 -1.259640 -2.480268 -137.844437 -170.230453 -17.381462 -114.725784 137.872513
[Rope3_Seg01]
15 0.000000 0.000000 0.000000 26.551888 17.645046 -40.289951 0.000000
16 0.000000 0.000000 0.000000 23.118580 13.556435 -41.209423 0.000000
[Rope3_Seg02]
15 139.999924 -0.000119 0.000060 11.283799 12.263900 -10.226801 139.999924
16 139.999924 -0.000119 0.000060 11.609246 13.709901 -15.546937 139.999924
[Rope3_Seg03]
15 139.999924 -0.000119 0.000119 11.084853 24.158394 -35.557114 139.999924
16 139.999924 -0.000119 0.000119 0.163451 22.653128 -54.412560 139.999924
[Rope3_Seg04]
15 139.999924 0.000119 0.000000 -2.600688 7.639506 -40.530930 139.999924
16 139.999924 0.000119 0.000000 -8.880191 6.274189 -32.037247 139.999924
[Rope3_Seg05]
15 139.999924 -0.000238 0.000060 -3.508568 4.980151 -10.600728 139.999924
16 139.999924 -0.000238 0.000060 -4.612391 5.489455 -6.724518 139.999924
[Rope3_Seg06]
15 139.999893 -0.000119 -0.000060 -4.047523 9.299898 -5.851033 139.999893
16 139.999893 -0.000119 -0.000060 -5.392259 10.286230 -3.770395 139.999893
[Rope3_Seg07]
15 139.999771 0.000060 -0.000119 -6.373876 20.472475 -6.276004 139.999771
16 139.999771 0.000060 -0.000119 -6.715912 16.842785 -4.194246 139.999771
[Rope3_Seg08]
15 139.999985 -0.000060 0.000000 -2.599216 14.753881 -4.780523 139.999985
16 139.999985 -0.000060 0.000000 -3.248382 11.925711 -3.203358 139.999985
[Rope3_Seg09]
15 90.185997 -0.000179 -0.000060 89.793228 -1.359877 -0.847183 90.185997
16 90.185997 -0.000179 -0.000060 89.793228 -1.359877 -0.847183 90.185997
[R_rear_hand01]
15 103.366196 -6.073594 -10.757982 -164.755127 19.627697 -40.352161 104.101845
16 103.366196 -6.073594 -10.757982 -164.972809 19.789423 -40.983833 104.101845
[R_rear_hand02]
15 100.509819 12.039542 -7.992327 -30.792652 24.782448 38.141541 101.543350
16 100.509819 12.039542 -7.992327 -30.544968 25.097782 38.729172 101.543350
[R_rear_hand03]
15 101.539970 5.215704 5.435467 82.448357 -41.048256 8.840384 101.819031
16 101.539970 5.215704 5.435467 82.376854 -41.657890 8.948382 101.819031
[Rope4_Seg01]
15 0.000010 0.000027 -0.000106 -121.192406 -25.375395 -51.383080 0.000110
16 0.000010 0.000026 -0.000103 -123.614594 -69.079979 -86.606758 0.000106
[Rope4_Seg02]
15 139.999985 0.000060 0.000119 -56.726814 24.888624 -53.892643 139.999985
16 139.999985 0.000060 0.000119 -1.026006 30.470387 1.044821 139.999985
[Rope4_Seg03]
15 139.999924 0.000000 -0.000238 -8.868895 32.752235 -15.501975 139.999924
16 139.999924 0.000000 -0.000238 2.776678 19.852758 -1.877954 139.999924
[Rope4_Seg04]
15 139.999985 0.000000 0.000119 2.392686 21.958639 3.852640 139.999985
16 139.999985 0.000000 0.000119 2.920346 15.625451 3.578808 139.999985
[Rope4_Seg05]
15 139.999802 -0.000060 -0.000119 4.144419 20.896284 5.991590 139.999802
16 139.999802 -0.000060 -0.000119 1.145803 13.439334 5.980915 139.999802
[Rope4_Seg06]
15 139.999924 0.000000 0.000060 3.398117 8.595981 1.299129 139.999924
16 139.999924 0.000000 0.000060 1.441450 6.955247 2.487761 139.999924
[Rope4_Seg07]
15 139.999802 0.000000 0.000000 2.933624 4.926190 0.370532 139.999802
16 139.999802 0.000000 0.000000 1.600201 4.342412 1.299787 139.999802
[Rope4_Seg08]
15 139.999924 0.000000 0.000119 0.597088 2.850337 0.070938 139.999924
16 139.999924 0.000000 0.000119 -0.273826 2.634758 0.712682 139.999924
[Rope4_Seg09]
15 90.185791 0.000060 0.000060 -135.617828 2.228885 0.850567 90.185791
16 90.185791 0.000060 0.000060 -135.617828 2.228885 0.850567 90.185791
[L_rear_hand01]
15 101.696655 -8.392275 -7.654577 -26.201548 -29.631554 131.847153 102.329041
16 101.696655 -8.392275 -7.654577 -24.658649 -30.887175 128.783096 102.329041
[L_rear_hand02]
15 102.726799 -1.568258 5.773216 80.925568 51.072384 169.054459 102.900848
16 102.726799 -1.568258 5.773216 80.302361 53.966496 168.267441 102.900848
[L_rear_hand03]
15 104.552910 9.721220 -10.420293 -168.512360 -21.976339 -129.102905 105.519653
16 104.552910 9.721220 -10.420293 -169.691223 -22.530382 -125.995598 105.519653
